<svg width="1600" height="980" viewBox="0 0 1600 980" fill="none" xmlns="http://www.w3.org/2000/svg">
  <rect width="1600" height="980" fill="#DDD6C7"/>
  <rect width="1600" height="980" fill="url(#bg)"/>
  <ellipse cx="1220" cy="470" rx="250" ry="320" fill="url(#childGlow)" opacity="0.75"/>
  <ellipse cx="380" cy="590" rx="230" ry="180" fill="url(#parentGlow)" opacity="0.45"/>
  <ellipse cx="1210" cy="180" rx="40" ry="40" fill="#F6D28B"/>
  <ellipse cx="1020" cy="300" rx="160" ry="90" fill="#C9D6D1" opacity="0.5"/>
  <ellipse cx="1320" cy="340" rx="200" ry="110" fill="#E5DDD0" opacity="0.55"/>
  <rect x="1080" y="610" width="180" height="110" rx="55" fill="#B9935A" opacity="0.42"/>
  <rect x="980" y="640" width="120" height="36" rx="18" fill="#D7A35B" opacity="0.52"/>
  <circle cx="1215" cy="495" r="86" fill="#F4B06E"/>
  <circle cx="1182" cy="452" r="24" fill="#D98C4A"/>
  <rect x="1170" y="570" width="96" height="170" rx="48" fill="#5F847E"/>
  <rect x="1130" y="730" width="62" height="150" rx="31" fill="#5F847E"/>
  <rect x="1218" y="730" width="62" height="150" rx="31" fill="#5F847E"/>
  <circle cx="360" cy="610" r="74" fill="#D6A07B"/>
  <rect x="300" y="666" width="140" height="136" rx="68" fill="#C56F5D"/>
  <rect x="270" y="758" width="56" height="136" rx="28" fill="#8A6E58"/>
  <rect x="408" y="758" width="56" height="136" rx="28" fill="#8A6E58"/>
  <rect x="590" y="270" width="180" height="86" rx="43" fill="#CDD8D3" opacity="0.4"/>
  <rect x="720" y="330" width="220" height="96" rx="48" fill="#C9B79D" opacity="0.34"/>
  <rect x="810" y="230" width="140" height="40" rx="20" fill="#ACC2BC" opacity="0.35"/>
  <rect x="0" y="840" width="1600" height="140" fill="url(#floor)"/>
  <defs>
    <linearGradient id="bg" x1="0" y1="0" x2="1600" y2="980" gradientUnits="userSpaceOnUse">
      <stop stop-color="#D2CEC2"/>
      <stop offset="0.42" stop-color="#E9E1D3"/>
      <stop offset="1" stop-color="#CBBCA4"/>
    </linearGradient>
    <radialGradient id="childGlow" cx="0" cy="0" r="1" gradientUnits="userSpaceOnUse" gradientTransform="translate(1220 470) rotate(90) scale(320 250)">
      <stop stop-color="#F8E4B2"/>
      <stop offset="1" stop-color="#F8E4B2" stop-opacity="0"/>
    </radialGradient>
    <radialGradient id="parentGlow" cx="0" cy="0" r="1" gradientUnits="userSpaceOnUse" gradientTransform="translate(380 590) rotate(90) scale(180 230)">
      <stop stop-color="#F3D9C4"/>
      <stop offset="1" stop-color="#F3D9C4" stop-opacity="0"/>
    </radialGradient>
    <linearGradient id="floor" x1="800" y1="840" x2="800" y2="980" gradientUnits="userSpaceOnUse">
      <stop stop-color="#B8A488"/>
      <stop offset="1" stop-color="#A48B6A"/>
    </linearGradient>
  </defs>
</svg>
